<svg width="408" height="318" viewBox="0 0 408 318" fill="none" xmlns="http://www.w3.org/2000/svg">
<path d="M57.17 255.658V272.432C57.17 272.432 44.781 272.432 20.0029 272.432C19.1454 272.432 18.4062 272.731 17.7852 273.329C17.1939 273.927 16.8982 274.66 16.8982 275.527C16.8982 276.334 17.2087 277.067 17.8296 277.725C18.4505 278.323 19.175 278.622 20.0029 278.622C23.8763 278.622 29.7751 278.622 37.6994 278.622C41.2772 278.622 44.5444 279.519 47.5013 281.313C50.4581 283.077 52.8087 285.454 54.5533 288.444C56.2978 291.404 57.17 294.693 57.17 298.311C57.17 303.543 55.2777 308.178 51.493 312.214C47.4717 316.071 42.8738 318 37.6994 318H0V301.271H37.3446C38.1134 301.271 38.8082 300.972 39.4291 300.374C39.9909 299.776 40.2718 299.088 40.2718 298.311V297.459C40.2718 296.92 40.0649 296.427 39.6509 295.979C39.237 295.59 38.7639 295.395 38.2316 295.395C34.7426 295.395 28.6811 295.395 20.0472 295.395C14.7249 295.395 9.99404 293.407 5.8545 289.43C2.0402 285.454 0.0887045 280.67 0 275.078C0.0887045 269.547 2.05499 264.808 5.89885 260.861C9.86098 257.034 14.5919 255.12 20.0916 255.12C44.8106 255.479 57.17 255.658 57.17 255.658Z" fill="#11A32B"/>
<path d="M95.6678 292.929L63.2463 255.838H90.656L104.139 274.047L117.622 255.838H145.032L112.61 292.929V318H95.6678V292.929Z" fill="#11A32B"/>
<path d="M206.061 255.658V272.432C206.061 272.432 193.671 272.432 168.893 272.432C168.036 272.432 167.297 272.731 166.676 273.329C166.084 273.927 165.789 274.66 165.789 275.527C165.789 276.334 166.099 277.067 166.72 277.725C167.341 278.323 168.065 278.622 168.893 278.622C172.767 278.622 178.666 278.622 186.59 278.622C190.168 278.622 193.435 279.519 196.392 281.313C199.349 283.077 201.699 285.454 203.444 288.444C205.188 291.404 206.061 294.693 206.061 298.311C206.061 303.543 204.168 308.178 200.383 312.214C196.362 316.071 191.764 318 186.59 318H148.89V301.271H186.235C187.004 301.271 187.699 300.972 188.32 300.374C188.881 299.776 189.162 299.088 189.162 298.311V297.459C189.162 296.92 188.955 296.427 188.541 295.979C188.127 295.59 187.654 295.395 187.122 295.395C183.633 295.395 177.572 295.395 168.938 295.395C163.615 295.395 158.885 293.407 154.745 289.43C150.931 285.454 148.979 280.67 148.89 275.078C148.979 269.547 150.945 264.808 154.789 260.861C158.751 257.034 163.482 255.12 168.982 255.12C193.701 255.479 206.061 255.658 206.061 255.658Z" fill="#11A32B"/>
<path d="M271.569 307.146C268.612 310.495 265.049 313.141 260.88 315.085C256.74 317.028 252.261 318 247.441 318C241.587 318 236.25 316.61 231.43 313.829C226.64 311.018 222.811 307.266 219.943 302.571C217.104 297.847 215.685 292.63 215.685 286.919C215.685 281.208 217.104 276.005 219.943 271.311C222.811 266.587 226.64 262.834 231.43 260.054C236.25 257.243 241.587 255.838 247.441 255.838C252.261 255.838 256.74 256.809 260.88 258.753C265.049 260.696 268.612 263.343 271.569 266.691L259.283 279.07C258.012 277.097 256.341 275.527 254.271 274.361C252.202 273.195 249.925 272.612 247.441 272.612C243.538 272.612 240.197 274.017 237.418 276.828C234.668 279.608 233.293 282.972 233.293 286.919C233.293 290.866 234.668 294.244 237.418 297.055C240.197 299.866 243.538 301.271 247.441 301.271C249.925 301.271 252.202 300.688 254.271 299.522C256.341 298.326 258.012 296.741 259.283 294.768L271.569 307.146Z" fill="#11A32B"/>
<path d="M300.575 272.432H277.601V255.658H340.492V272.432H317.518V318H300.575V272.432Z" fill="#11A32B"/>
<path d="M369.543 301.271H407.952V318H352.645V255.658H369.543V301.271Z" fill="#11A32B"/>
<path d="M207.796 136.588L211.347 86.4877C211.757 80.709 217.982 77.268 223.093 79.995L271.647 105.9C274.253 107.291 275.881 110.004 275.881 112.958V178.919C275.881 181.831 274.298 184.514 271.748 185.922L211.741 219.059C209.154 220.487 205.99 220.373 203.513 218.763L159.104 189.889C154.439 186.856 154.218 180.106 158.674 176.775L204.607 142.43C206.468 141.038 207.632 138.906 207.796 136.588Z" fill="#11A32B"/>
<path d="M135.672 35.3572L190.312 1.40632C192.713 -0.0852543 195.722 -0.199562 198.229 1.10562L251.495 28.8396C256.796 31.5993 257.309 38.9846 252.442 42.4514L203.78 77.1125C201.883 78.4639 200.669 80.5753 200.455 82.8949L195.402 137.773C194.849 143.772 188.115 147.031 183.068 143.742L135.526 112.761C133.261 111.284 131.894 108.763 131.894 106.058V42.1523C131.894 39.3865 133.323 36.8169 135.672 35.3572Z" fill="#11A32B"/>
</svg>
